<svg xmlns="http://www.w3.org/2000/svg" xmlns:xlink="http://www.w3.org/1999/xlink" width="1920" zoomAndPan="magnify" viewBox="0 0 1440 809.999993" height="1080" preserveAspectRatio="xMidYMid meet" version="1.0"><defs><g/><clipPath id="8f831e2388"><path d="M 659.25 321.113281 L 780.75 321.113281 L 780.75 489 L 659.25 489 Z M 659.25 321.113281 " clip-rule="nonzero"/></clipPath><clipPath id="4765aa67da"><path d="M 780.75 428.136719 L 780.75 321.113281 L 659.25 321.113281 L 659.25 428.136719 L 720 488.886719 Z M 780.75 428.136719 " clip-rule="nonzero"/></clipPath></defs><g clip-path="url(#8f831e2388)"><g clip-path="url(#4765aa67da)"><path fill="#c4b215" d="M 780.75 321.113281 L 780.75 488.652344 L 659.25 488.652344 L 659.25 321.113281 Z M 780.75 321.113281 " fill-opacity="1" fill-rule="nonzero"/></g></g><path fill="#000000" d="M 685.902344 398.628906 L 754.097656 398.628906 L 754.097656 403.488281 L 685.902344 403.488281 Z M 685.902344 398.628906 " fill-opacity="1" fill-rule="nonzero"/><g fill="#000000" fill-opacity="1"><g transform="translate(685.904036, 395.387934)"><g><path d="M 24.890625 0 L 4.46875 0 L 4.46875 -35.453125 L 24.890625 -35.453125 L 24.890625 -29.296875 L 11.984375 -29.296875 L 11.984375 -21.515625 L 23.984375 -21.515625 L 23.984375 -15.359375 L 11.984375 -15.359375 L 11.984375 -6.203125 L 24.890625 -6.203125 Z M 24.890625 0 "/></g></g></g><g fill="#000000" fill-opacity="1"><g transform="translate(713.718296, 395.387934)"><g><path d="M 35.921875 0 L 26.359375 0 L 10.9375 -26.828125 L 10.71875 -26.828125 C 11.03125 -22.085938 11.1875 -18.707031 11.1875 -16.6875 L 11.1875 0 L 4.46875 0 L 4.46875 -35.453125 L 13.953125 -35.453125 L 29.34375 -8.90625 L 29.515625 -8.90625 C 29.273438 -13.507812 29.15625 -16.765625 29.15625 -18.671875 L 29.15625 -35.453125 L 35.921875 -35.453125 Z M 35.921875 0 "/></g></g></g></svg>